<?xml version="1.0" encoding="utf-8" ?>
<svg xmlns="http://www.w3.org/2000/svg" xmlns:xlink="http://www.w3.org/1999/xlink" width="2100" height="2100">
	<path fill="#9399BF" d="M1383.86 1058.51L1394.53 1058.25C1415.5 1058.78 1434.9 1070.13 1448.81 1085.26C1458.45 1095.75 1468.42 1110.68 1467.3 1125.47C1466.85 1131.53 1463.71 1138.22 1458.97 1142.13C1452.93 1147.1 1445.83 1146.43 1438.62 1145.82C1428.03 1141.92 1419.33 1135.31 1410.53 1128.41C1395.89 1116.94 1382.31 1104.09 1368.38 1091.78C1364.1 1088.01 1355.71 1082.83 1353.16 1077.95C1351.71 1075.18 1352.32 1073.01 1353.16 1070.27C1360.39 1061.86 1373.45 1060.06 1383.86 1058.51Z"/>
	<path fill="#9399BF" d="M1308.49 1066.04C1349.58 1093.51 1406.11 1124.81 1416.1 1177.84C1420 1198.54 1412.13 1223.55 1400.17 1240.6C1390.61 1254.22 1375.6 1260.78 1360.29 1265.75L1330.43 1187.76C1318.47 1156.19 1303.58 1124.11 1303.97 1089.74C1304.05 1083.13 1303.51 1070.95 1308.49 1066.04Z"/>
	<path fill="#9399BF" d="M616.776 954.879C622.429 954.589 627.684 954.653 633.301 955.605C643.062 957.261 653.935 962.865 659.495 971.242C662.413 975.639 663.552 980.742 662.171 985.913C660.133 993.541 652.623 999.776 646.957 1004.8C639.724 1011.21 632.609 1017.22 626.542 1024.82C604.44 1052.51 596.777 1092.84 566.016 1112.96L556.787 1116.33C550.396 1117.94 543.144 1115.87 537.817 1112.2C529.894 1106.74 525.218 1096.56 523.65 1087.31C518.514 1057.01 530.29 1023.91 547.918 999.45C564.352 976.649 588.924 959.477 616.776 954.879Z"/>
	<path fill="#9399BF" d="M1258.25 698.65C1248.58 697.709 1232.81 688.309 1225.87 681.77C1220.18 676.407 1216.04 669.447 1213.2 662.203C1208.56 650.373 1206.8 637.275 1204.63 624.805C1197.31 582.872 1194.49 540.962 1192.3 498.497C1190.66 466.731 1191.2 435.043 1192.99 403.312C1193.79 389.13 1193.11 363.362 1203.69 352.588C1205.86 350.377 1208.73 348.606 1211.63 347.541C1219.73 344.569 1230.18 343.983 1238.8 342.76C1268.19 338.591 1296.68 335.398 1326.41 334.552L1460.04 334.537C1513.18 336.069 1567.22 340.386 1619.89 347.728C1628.75 348.964 1641.03 349.569 1649.34 352.81C1651.87 353.794 1653.97 355.709 1655.9 357.564L1670.87 370.934C1670.19 371.143 1669.54 371.547 1668.82 371.56C1666.73 371.6 1663.31 370.254 1661.19 369.769L1644.82 366.482L1601.9 361.086L1426.52 350.791L1324.78 353.4C1305.03 354.239 1285.69 355.536 1266.16 358.77C1260.99 359.627 1255.56 359.667 1250.59 361.432C1242.96 364.139 1236.61 369.227 1232.84 376.459C1229.99 381.914 1228.55 387.987 1228.05 394.089C1226.57 412.072 1228.05 430.837 1228.52 448.862L1239.46 603.024C1240.59 613.867 1240.3 624.851 1241.56 635.667C1242.67 645.211 1245.05 654.551 1246.63 664.009C1247.78 670.924 1247.43 677.857 1249.68 684.605C1251.55 690.207 1254.52 694.21 1258.25 698.65Z"/>
	<path fill="#823145" d="M656.71 868.945C654.652 860.941 642.647 850.106 637.378 843.384C632.235 836.821 624.54 826.379 626.07 817.619C627.652 808.56 645.906 799.723 653.336 794.974L651.868 791.766C650.951 789.732 649.902 787.634 649.395 785.449C648.72 782.545 648.821 778.801 650.397 776.19C653.125 771.669 657.599 768.396 661.76 765.279C672.55 757.196 682.005 752.202 694.988 748.32C696.179 743.326 695.68 738.052 696.609 732.984C697.426 728.53 699.511 723.509 703.508 720.993C708.052 718.132 714.621 716.506 719.784 715.186C736.38 710.945 757.939 708.523 774.772 713.295C781.4 715.175 788.618 714.636 795.493 714.862C802.78 715.102 809.989 715.993 817.233 716.76C825.137 717.634 830.124 719.416 836.749 723.616C842.493 733.295 844.107 744.113 842.348 755.2C839.05 775.986 837.533 799.289 831.004 819.287L829.486 824.068C826.06 833.467 823.282 842.367 813.647 847.139C809.246 849.319 804.83 850.097 799.961 850.145C798.209 850.162 794.688 849.674 793.14 850.097C792.369 850.308 790.654 852.293 790.019 852.943C787.359 855.666 784.994 857.077 781.348 858.217C778.303 859.169 768.129 860.55 766.779 863.132C764.235 867.997 755.568 872.943 754.917 877.507C753.932 884.418 746.365 889.394 740.941 893.122L723.51 902.855L716.748 905.913L708.54 909.367C704.46 910.997 699.878 911.587 695.489 910.92C685.918 909.465 677.401 894.926 672.137 887.705L663.216 876.221C661.466 873.779 659.469 870.274 656.71 868.945Z"/>
	<path fill="#FEFEFE" d="M783.616 717.008C797.503 716.962 817.971 717.309 830.467 723.385C835.406 725.786 836.688 729.331 838.273 734.439C842.25 747.261 838.02 762.992 835.967 775.835C832.785 795.742 830.539 817.315 821.427 835.582C817.944 842.563 812.439 844.804 805.427 847.095C802.364 847.032 797.262 847.63 794.836 845.947C795.117 844.834 796.314 838.476 796.859 837.918C797.027 837.746 801.139 837.048 801.7 836.926C806.099 835.968 811.023 834.903 814.556 831.941C817.015 829.88 818.791 827.026 819.852 824.022C823.204 814.528 823.819 802.668 824.957 792.637L829.623 746.997C829.99 741.551 830.199 735.624 826.147 731.412C819.54 724.543 796.705 726.22 787.764 725.956L783.616 717.008Z"/>
	<path fill="#FEFEFE" d="M709.985 746.636C715.083 747.313 717.726 748.417 721.12 752.432C727.133 759.546 731.158 768.806 735.491 777.046C744.342 793.878 752.96 811.226 758.982 829.302C762.213 838.999 765.163 849.897 764.005 860.217C763.404 865.571 758.824 868.187 754.901 871.284C754.073 869.17 751.538 864.434 751.401 862.354C751.33 861.265 756.677 854.098 757.362 851.933C761.011 840.392 747.059 818.547 741.448 808.191L722.212 774.83C718.439 768.773 714.281 761.419 707.426 758.471C700.133 755.335 692.663 758.981 685.986 761.862C680.57 764.198 664.646 771.69 661.584 776.601C659.152 780.503 658.965 784.148 660.002 788.512L660.27 789.551C658.684 791.457 657.992 791.595 655.737 792.438C654.645 790.774 653.597 789.203 652.952 787.304C652.047 784.639 651.391 780.08 652.815 777.51C655.283 773.056 659.686 770.026 663.636 766.954C677.793 755.943 692.911 751.28 709.985 746.636Z"/>
	<path fill="#FEFEFE" d="M738.218 714.207C748.446 713.411 771.037 711.543 779.25 718.394C787.947 725.649 792.453 776.55 793.336 789.299C794.276 802.882 794.326 816.456 793.697 830.053C793.361 837.32 793.437 845.494 788.022 851.091C783.426 855.842 774.893 857.346 768.53 857.579C767.843 855.377 767.69 854.968 768.18 852.612C771.71 852.153 775.03 851.76 777.759 849.272C783.46 844.075 783.148 830.223 783.423 822.893L781.021 765.967C780.704 758.399 781.461 749.94 779.848 742.536C779.149 739.325 777.785 736.25 775.818 733.613C771.394 727.685 763.464 725.927 756.502 724.848L754.688 724.58L750.087 723.92C737.301 722.865 715.448 723.74 704.956 732.264C702.797 735.854 702.59 738.269 702.441 742.446C702.369 744.454 702.081 744.308 700.854 745.783L698.804 745.85L698.58 744.55C697.73 738.821 699.114 729.519 702.876 725.049C708.846 717.955 729.251 715.533 738.218 714.207Z"/>
	<path fill="#FEFEFE" d="M685.862 782.886C687.7 782.713 687.594 782.626 689.466 782.851C691.567 783.104 693.174 784.16 694.684 785.579C705.058 795.333 713.463 810.164 722.051 821.685C730.668 833.246 753.598 865.43 751.578 879.272C749.127 882.956 746.487 885.62 742.868 888.183C732.057 895.837 709.307 910.333 695.471 907.983C692.142 906.401 689.687 904.71 687.104 902.048C679.045 893.746 672.016 882.613 664.871 873.374L647.517 851.266C640.698 843.048 632.818 834.189 629.235 823.927C628.033 820.482 628.278 817.469 630.122 814.309C631.905 811.255 637.47 808.335 640.397 806.409C654.53 797.108 669.415 787.512 685.862 782.886Z"/>
	<path fill="#823145" d="M682.899 795.718C684.553 795.667 686.034 795.893 687.589 796.454C700.7 801.182 718.931 836.099 725.968 848.479C729.091 853.973 733.458 860.078 735.708 865.942C736.833 868.875 736.312 871.55 734.843 874.251C729.1 884.812 710.995 893.595 699.702 896.863L694.709 895.967C687.284 893.506 651.076 839.698 646.794 829.848C645.312 826.438 644.587 822.746 646.143 819.234C647.977 815.096 652.039 812.934 655.644 810.52C664.535 804.568 672.708 799.254 682.899 795.718Z"/>
	<path fill="#171E4C" d="M1377.46 1318.04C1380.79 1316.13 1384.34 1314.33 1387.43 1312.03C1379.73 1303.02 1374.54 1295.82 1375.86 1283.19C1376.88 1273.45 1382.76 1264.27 1390.55 1258.51C1398.16 1252.88 1407.6 1250.39 1416.96 1252.35C1426.38 1254.32 1433.04 1259.44 1438.11 1267.49C1443.19 1275.55 1445.01 1290.47 1442.76 1299.74C1441.12 1306.48 1436.38 1310.28 1432.38 1315.56L1433.51 1316.61C1444.84 1327.28 1446.36 1342.76 1446.82 1357.62L1446.94 1372.94C1463.86 1377.05 1494.14 1382.15 1503.73 1397.96L1506.42 1402.7L1507.12 1403.78C1512.22 1411.75 1514.36 1431.13 1512.04 1440.29C1510.39 1446.84 1502.35 1452.08 1496.66 1454.86C1487.96 1459.12 1478.52 1461.7 1469.09 1463.77C1450.48 1467.86 1431.51 1470.05 1412.72 1473.22L1319.6 1490.54L1065.93 1539.69C1042.59 1543.59 1016.4 1551.15 992.778 1549.98C970.147 1548.86 946.489 1541.31 924.853 1535.01L859.532 1517.75L709.434 1486.62L605.798 1465.43C597.111 1463.33 587.716 1462.2 579.265 1459.42C568.098 1455.74 553.236 1449.64 547.692 1438.52C542.566 1428.24 545.133 1408.74 549.231 1398.35C553.087 1388.58 559.591 1381.87 569.227 1377.65C579.962 1372.95 592.761 1371.32 604.228 1369.13C611.663 1367.72 619.538 1365.52 627.026 1364.86C630.086 1364.59 633.013 1364.86 636.086 1364.38L713.705 1352.92C711.018 1358 707.889 1363.12 705.938 1368.53C705.176 1377.73 706.065 1384.69 712.253 1392.06C714.248 1394.44 716.352 1396.61 718.708 1398.62L738.527 1410.91L764.004 1419.84C766.815 1420.88 769.873 1421.34 772.597 1422.5C775.745 1423.84 780.013 1425.28 783.41 1424.32C794.945 1421.04 809.17 1421.05 821.174 1420.1L870.496 1417.05C878.003 1416.92 885.816 1416.31 893.246 1417.57C897.5 1415.55 904.673 1416.15 909.45 1415.85C919.003 1415.26 930.724 1412.83 940.049 1414.63C943.238 1412.05 978.178 1409.32 984.093 1408.44C1004.82 1405.35 1017.58 1385.19 1029.25 1369.35L1073.48 1363.45L1074.38 1364.06C1076.44 1365.92 1077.18 1369.6 1078.19 1372.16C1079.79 1376.18 1082.12 1380.02 1085.57 1382.72C1091.25 1387.17 1101.02 1388.28 1108.03 1390.02L1153.56 1401.06C1158.7 1402.25 1165.82 1402.85 1170.28 1405.42L1209.86 1410.34C1213.72 1409.22 1220.15 1410.15 1224.32 1410.09L1263.82 1408.79L1360.59 1399.76C1360.71 1397.2 1360.15 1394.55 1360.01 1391.97C1358.69 1367.5 1360.35 1337.26 1377.46 1318.04Z"/>
	<path fill="#9399BF" d="M705.938 1368.53C705.176 1377.73 706.065 1384.69 712.253 1392.06C714.248 1394.44 716.352 1396.61 718.708 1398.62C702.57 1401.81 685.552 1403.71 669.214 1405.77C662.763 1406.58 650.755 1406.19 645.163 1409.22L643.433 1410.25C628.908 1406.9 614.451 1402.06 600.168 1397.78C593.947 1395.91 585.314 1394.4 579.763 1391.2L705.938 1368.53Z"/>
	<path fill="#9399BF" d="M1360.59 1399.76C1362.88 1404.57 1365.83 1405.98 1370.9 1407.67C1378.97 1410.36 1387.55 1410.98 1395.99 1411.52C1411.5 1412.53 1426.48 1412.93 1440.58 1405.35C1442.29 1404.43 1443.55 1403.58 1444.99 1402.31L1446.84 1388.44C1462.23 1391.65 1476.58 1394.97 1489.71 1403.96C1451.64 1415.13 1411.76 1421.05 1372.82 1428.44L1347.58 1433.25C1344.22 1433.89 1339.78 1435.33 1336.43 1435.38C1333.28 1435.43 1325.31 1431.35 1322.07 1430.17C1303.03 1423.26 1282.14 1417.28 1263.82 1408.79L1360.59 1399.76Z"/>
	<path fill="#FEFEFE" d="M1224.82 1411.4L1307.85 1440.74L1225.05 1456.87C1215.62 1458.75 1204.52 1462.54 1195.09 1463.05C1192.4 1463.2 1189.26 1461.68 1186.57 1461.17L1153.8 1454.9L1063.1 1439.5C1070.35 1437.29 1078.29 1436.5 1085.77 1435.28L1124.95 1428.84L1224.82 1411.4Z"/>
	<path fill="#9399BF" d="M1014.67 1447.2C1018.77 1446.27 1024.39 1448.08 1028.51 1448.82L1058.2 1453.96L1157.55 1471.15L1033.61 1492.27C1024.39 1493.82 1014.24 1496.05 1004.88 1495.12C989.449 1493.57 973.038 1488.15 957.761 1484.9L914.497 1476.03C908.257 1474.69 900.826 1473.79 895.007 1471.24L1014.67 1447.2Z"/>
	<path fill="#FEFEFE" d="M1073.48 1363.45L1074.38 1364.06C1076.44 1365.92 1077.18 1369.6 1078.19 1372.16C1079.79 1376.18 1082.12 1380.02 1085.57 1382.72C1091.25 1387.17 1101.02 1388.28 1108.03 1390.02L1153.56 1401.06C1158.7 1402.25 1165.82 1402.85 1170.28 1405.42C1138.39 1412.74 1105.19 1417.12 1072.88 1422.56C1055.15 1425.54 1036 1430.45 1018.21 1431.59C1015.61 1431.76 1013.37 1431.14 1010.87 1430.5L940.049 1414.63C943.238 1412.05 978.178 1409.32 984.093 1408.44C1004.82 1405.35 1017.58 1385.19 1029.25 1369.35L1073.48 1363.45Z"/>
	<path fill="#FEFEFE" d="M738.527 1410.91L764.004 1419.84C766.815 1420.88 769.873 1421.34 772.597 1422.5C775.745 1423.84 780.013 1425.28 783.41 1424.32C794.945 1421.04 809.17 1421.05 821.174 1420.1L870.496 1417.05C878.003 1416.92 885.816 1416.31 893.246 1417.57L976.8 1438.88C941.583 1448.07 904.952 1454.47 869.031 1460.26C864.998 1460.91 859.398 1463.17 855.688 1463.08C851.32 1462.98 846.223 1461.09 841.932 1460.05L816.903 1454.42L677.344 1420.04C681.409 1418.04 689.654 1418.07 694.329 1417.43L738.527 1410.91Z"/>
	<path fill="#FEFEFE" d="M566.869 1403.84C570.295 1405.74 574.333 1407.81 578.289 1408.03C588.861 1408.62 599.525 1413.17 609.655 1416.21L660.111 1430.87L788.077 1463.07L956.621 1500.1C972 1503.25 990.02 1509.5 1005.59 1510.21C1023.08 1511.01 1042.51 1505.91 1059.9 1503.28L1271.87 1462.68L1395.56 1439.03C1428.57 1432.88 1461.59 1427.47 1493.99 1418.51L1495.45 1435.25L1487.43 1439.56C1466.64 1448.8 1442.04 1450.99 1419.79 1454.72L1339.78 1468.66L1061.25 1522.58L1013.68 1531.35C1004.35 1532.66 995.132 1533.08 985.771 1531.89C972.352 1530.18 958.707 1526.1 945.602 1522.71L855.046 1498.72L654.483 1458.36L600.523 1446.43C591.443 1444.37 581.241 1442.97 572.634 1439.57C569.378 1438.29 563.643 1435.36 561.966 1432.04C557.92 1424.02 563.834 1411.44 566.869 1403.84Z"/>
	<path fill="#171E4C" d="M1258.25 698.65C1254.52 694.21 1251.55 690.207 1249.68 684.605C1247.43 677.857 1247.78 670.924 1246.63 664.009C1245.05 654.551 1242.67 645.211 1241.56 635.667C1240.3 624.851 1240.59 613.867 1239.46 603.024L1228.52 448.862C1228.05 430.837 1226.57 412.072 1228.05 394.089C1228.55 387.987 1229.99 381.914 1232.84 376.459C1236.61 369.227 1242.96 364.139 1250.59 361.432C1255.56 359.667 1260.99 359.627 1266.16 358.77C1285.69 355.536 1305.03 354.239 1324.78 353.4L1426.52 350.791L1601.9 361.086L1644.82 366.482L1661.19 369.769C1663.31 370.254 1666.73 371.6 1668.82 371.56C1669.54 371.547 1670.19 371.143 1670.87 370.934C1678.2 377.488 1687.65 386.233 1692.84 394.596C1702.15 409.598 1705.08 426.183 1708.01 443.263C1710.22 456.197 1712.34 468.922 1713.06 482.044L1715.87 586.011C1716.45 608.529 1718.29 630.989 1717.07 653.521C1716.66 660.998 1716.5 669.074 1714.94 676.403C1713.61 682.679 1711.17 687.641 1706.88 692.446C1691.95 709.179 1666.2 712.302 1645.1 713.005L1491.09 713.675L1461.4 714.354C1456.58 714.396 1451.59 713.497 1446.8 714.23C1440.84 715.142 1433.51 717.862 1428.1 720.562C1416.61 726.294 1405.58 733.717 1394.46 740.185L1334.51 775.063L1308.76 790.579C1303.88 793.477 1298.71 796.989 1293.28 798.752C1287.6 800.598 1284.35 800.347 1279.9 796.216C1279.72 795.02 1279.2 793.825 1279.36 792.627C1280.1 787.276 1288.04 777.5 1291.13 772.698L1316.51 733.391C1321.91 724.989 1327.74 716.618 1331.98 707.56C1317.2 707.385 1303.03 706.128 1288.36 704.455C1277.68 703.238 1268.83 703.375 1258.91 698.533L1258.25 698.65Z"/>
	<path fill="#FEFEFE" d="M1551.87 547.872C1559.48 547.136 1565.39 548.626 1571.91 552.757C1582.53 559.494 1592.24 571.453 1594.59 583.956C1597.09 597.194 1592.2 609.202 1584.85 619.998C1578.36 629.531 1568.33 633.066 1557.59 635.237C1550.95 635.316 1544.9 634.966 1538.73 632.264C1528.83 627.929 1521.04 619.431 1517.11 609.41C1512.77 598.322 1512.72 585.563 1517.92 574.731C1524.77 560.461 1537.51 552.953 1551.87 547.872Z"/>
	<path fill="#FEFEFE" d="M1393.86 427.894C1401.99 426.91 1407.68 427.644 1414.89 432.001C1426.55 439.049 1436.93 451.305 1440.06 464.714C1443.31 478.63 1438.16 491.143 1430.84 502.779C1424.05 513.577 1413.78 517.622 1401.95 520.264C1395.4 520.643 1388.91 520.299 1382.74 517.903C1371.72 513.626 1363.07 504.726 1358.46 493.919C1353.61 482.53 1353.27 469.126 1358.19 457.701C1365.01 441.882 1378.53 433.835 1393.86 427.894Z"/>
	<path fill="#94D850" d="M1029.32 646.181C1038.48 645.049 1047.72 643.983 1056.95 644.506C1064.04 644.907 1070.7 646.44 1077.69 647.193C1084.92 647.973 1092.17 647.82 1099.41 648.869C1119.61 651.793 1138.09 659.182 1154.16 671.727C1199.92 707.431 1226.16 763.529 1254.34 812.778C1260.88 824.197 1268.91 841.758 1278.89 850.092C1286.56 856.508 1298.05 855.865 1307.37 854.738C1328.55 852.175 1349.93 846.633 1370.74 841.969C1393.33 836.908 1415.48 831.473 1438.76 830.923C1448.3 830.698 1458.95 831.59 1466.9 837.397C1476.75 844.59 1484.91 857.443 1486.56 869.477C1489.55 891.21 1476.63 909.972 1463.79 926.07C1443.31 951.73 1421.03 976.402 1396.19 997.898L1356.35 1029.75L1315.43 1060.13C1313.28 1061.88 1309.77 1063.6 1308.49 1066.04C1303.51 1070.95 1304.05 1083.13 1303.97 1089.74C1303.58 1124.11 1318.47 1156.19 1330.43 1187.76L1360.29 1265.75L1377.46 1318.04C1360.35 1337.26 1358.69 1367.5 1360.01 1391.97C1360.15 1394.55 1360.71 1397.2 1360.59 1399.76L1263.82 1408.79L1224.32 1410.09C1220.15 1410.15 1213.72 1409.22 1209.86 1410.34L1170.28 1405.42C1165.82 1402.85 1158.7 1402.25 1153.56 1401.06L1108.03 1390.02C1101.02 1388.28 1091.25 1387.17 1085.57 1382.72C1082.12 1380.02 1079.79 1376.18 1078.19 1372.16C1077.18 1369.6 1076.44 1365.92 1074.38 1364.06L1073.48 1363.45L1029.25 1369.35C1017.58 1385.19 1004.82 1405.35 984.093 1408.44C978.178 1409.32 943.238 1412.05 940.049 1414.63C930.724 1412.83 919.003 1415.26 909.45 1415.85C904.673 1416.15 897.5 1415.55 893.246 1417.57C885.816 1416.31 878.003 1416.92 870.496 1417.05L821.174 1420.1C809.17 1421.05 794.945 1421.04 783.41 1424.32C780.013 1425.28 775.745 1423.84 772.597 1422.5C769.873 1421.34 766.815 1420.88 764.004 1419.84L738.527 1410.91L718.708 1398.62C716.352 1396.61 714.248 1394.44 712.253 1392.06C706.065 1384.69 705.176 1377.73 705.938 1368.53C707.889 1363.12 711.018 1358 713.705 1352.92L724.527 1333.32C726.356 1329.98 728.742 1326.55 729.503 1322.78C727.199 1317.07 726.861 1313.66 727.866 1307.48C728.282 1304.92 718.575 1300.16 716.07 1298.61C687.127 1280.72 660.366 1257.87 641.901 1229C615.14 1187.14 603.29 1129.25 614.286 1080.65C618.519 1061.94 626.651 1041.92 638.835 1026.93C650.552 1012.52 666.521 1001.06 682.13 991.265L670.963 973.885C664.164 962.14 658.986 949.604 654.643 936.767C652.972 931.829 650.648 926.546 650.207 921.313C649.793 916.408 650.545 911.331 650.953 906.445C652.034 893.474 653.392 881.557 656.71 868.945C659.469 870.274 661.466 873.779 663.216 876.221L672.137 887.705C677.401 894.926 685.918 909.465 695.489 910.92C699.878 911.587 704.46 910.997 708.54 909.367L716.748 905.913L723.51 902.855L740.941 893.122C746.365 889.394 753.932 884.418 754.917 877.507C755.568 872.943 764.235 867.997 766.779 863.132C768.129 860.55 778.303 859.169 781.348 858.217C784.994 857.077 787.359 855.666 790.019 852.943C790.654 852.293 792.369 850.308 793.14 850.097C794.688 849.674 798.209 850.162 799.961 850.145C804.83 850.097 809.246 849.319 813.647 847.139C823.282 842.367 826.06 833.467 829.486 824.068L831.004 819.287C837.533 799.289 839.05 775.986 842.348 755.2C844.107 744.113 842.493 733.295 836.749 723.616C830.124 719.416 825.137 717.634 817.233 716.76C842.16 704.145 876.674 706.667 903.512 710.417L920.547 695.577C932.992 685.484 946.421 677.506 960.278 669.574C977.271 659.848 990.72 652.658 1010.18 648.445C1016.42 647.093 1022.91 645.498 1029.32 646.181Z"/>
	<path fill="#171E4C" d="M1051.72 1332.12L1064.17 1337.61C1068.98 1342.35 1071.69 1354.68 1074.04 1361.21L1073.48 1363.45L1029.25 1369.35L1039.94 1352.38L1054.22 1350.46C1051.68 1348.06 1047.29 1346.7 1044.07 1345.25L1051.72 1332.12Z"/>
	<path fill="#00C3FE" d="M989.713 956.177C990.958 955.979 992.33 956.011 993.591 955.956C994.632 956.791 994.941 956.925 995.745 958.228C997.416 960.937 998.301 965.637 999.034 968.763C1001.54 979.468 1003.77 993.35 1001.22 1004.19C1000.08 1009.08 998.329 1011.14 994.116 1013.56C992.71 1013.66 991.391 1013.26 990.015 1012.99C985.004 1008.72 982.842 1001.55 982.188 995.142C981.436 987.778 983.121 981.268 984.381 974.121C985.484 967.858 985.409 961.212 989.713 956.177Z"/>
	<path fill="#FEFEFE" d="M1139.83 792.034C1146.94 790.969 1154.47 790.925 1161.6 791.915C1177.29 794.09 1192.53 802.957 1201.91 815.74C1213.05 830.931 1213 848.109 1209.96 865.942C1205.76 890.564 1188.09 904.225 1169.08 917.869L1168 918.515C1158.13 924.303 1152.03 924.777 1141.26 921.857C1129.54 918.68 1120.33 912.045 1114.35 901.282C1103.62 881.958 1101.32 854.629 1107.49 833.611C1112.9 815.175 1122.96 801.368 1139.83 792.034Z"/>
	<path d="M1155.13 810.179C1163.11 809.991 1170.27 810.054 1176.54 815.75C1184.5 822.994 1188.06 832.463 1188.64 843.019C1189.5 858.682 1184.43 877.088 1173.69 888.844C1167.7 895.394 1160.2 900.151 1151.08 900.285C1142.83 900.405 1137.39 896.818 1131.74 891.317L1126.19 882.721C1123.66 877.896 1121.25 870.812 1122.85 865.43C1126.63 861.611 1132.64 861.041 1137.37 858.606C1141.89 856.282 1146.7 852.63 1148.03 847.451C1148.59 845.282 1148.23 842.218 1146.95 840.308C1145.14 837.622 1142.39 836.227 1139.21 835.938C1132.66 835.343 1126.42 842.102 1122.04 846.093C1123.89 840.955 1125.63 835.458 1128.49 830.789C1134.71 820.651 1143.52 813.254 1155.13 810.179Z"/>
	<path fill="#FEFEFE" d="M1035.86 803.227C1041.76 803.683 1047.31 804.82 1052.95 806.657C1069.72 812.125 1085.71 820.93 1093.67 837.576C1099.96 850.728 1100.08 870.495 1095.35 884.025C1087.1 907.619 1072.55 922.964 1050.34 933.438C1045.25 934.96 1040.24 936.335 1034.89 936.545C1024.43 936.957 1014.64 932.93 1007.12 925.708C994.803 913.889 989.46 888.803 989.273 872.155C988.955 843.832 1001.34 829.561 1019.75 809.918C1024.33 805.033 1029.41 804.079 1035.86 803.227Z"/>
	<path d="M1039.79 826.631C1047.06 826.271 1054.15 827.667 1060.36 831.589C1069.33 837.249 1073.56 846.612 1075.49 856.727C1077.88 869.21 1073.44 880.15 1066.46 890.288C1060.46 899.021 1051.78 904.557 1041.37 906.384C1031.68 908.083 1025.12 906.16 1017.18 900.507C1014.31 897.459 1011.55 893.957 1009.73 890.168C1008.24 887.079 1008.15 885.569 1009.1 882.349C1013.66 877.408 1019.53 876.29 1025.19 873.13C1029.52 870.718 1033.57 865.245 1034.39 860.303C1034.91 857.16 1034.11 855.853 1032.42 853.307C1021.82 848.009 1017.96 860.065 1009.5 861.35L1008.91 859.79C1009.6 855.585 1011.04 852.243 1013.1 848.559C1019.27 837.511 1027.48 830.061 1039.79 826.631Z"/>
	<path fill="#3C5623" d="M1059.34 1318.22C1059.44 1314.53 1059.67 1310.91 1060.88 1307.38C1063.25 1300.51 1067.27 1293.76 1070.39 1287.16L1094 1238.82C1098.69 1229.21 1101.91 1218.95 1106.34 1209.24L1140.06 1281.74L1158.45 1329.95C1161.45 1338.09 1164.11 1346.69 1167.85 1354.5C1177.88 1375.46 1192.57 1394.88 1209.86 1410.34L1170.28 1405.42C1165.82 1402.85 1158.7 1402.25 1153.56 1401.06L1108.03 1390.02C1101.02 1388.28 1091.25 1387.17 1085.57 1382.72C1082.12 1380.02 1079.79 1376.18 1078.19 1372.16C1077.18 1369.6 1076.44 1365.92 1074.38 1364.06L1073.48 1363.45L1074.04 1361.21C1071.69 1354.68 1068.98 1342.35 1064.17 1337.61L1051.72 1332.12L1059.34 1318.22Z"/>
	<path fill="#9399BF" d="M1059.34 1318.22C1060.15 1321.11 1065.2 1335.74 1064.17 1337.61L1051.72 1332.12L1059.34 1318.22Z"/>
	<path fill="#3C5623" d="M903.512 710.417L920.547 695.577C932.992 685.484 946.421 677.506 960.278 669.574C977.271 659.848 990.72 652.658 1010.18 648.445C1016.42 647.093 1022.91 645.498 1029.32 646.181C1020.19 652.213 1012.09 658.83 1003.34 665.28C997.823 669.352 991.841 672.669 986.469 676.985C958.909 699.123 933.436 731.381 926.297 766.74C921.354 791.217 921.627 816.134 922.118 840.982C922.342 852.308 923.493 864.254 921.766 875.469C921.203 879.128 920.277 881.764 917.212 884.019C913.146 883.447 865.356 869.344 863.911 868.094C860.556 865.192 857.188 859.238 854.438 855.579L850.895 850.651L829.486 824.068L831.004 819.287C837.533 799.289 839.05 775.986 842.348 755.2C844.107 744.113 842.493 733.295 836.749 723.616C830.124 719.416 825.137 717.634 817.233 716.76C842.16 704.145 876.674 706.667 903.512 710.417Z"/>
	<path fill="#9399BF" d="M817.233 716.76C842.16 704.145 876.674 706.667 903.512 710.417C895.714 718.946 888.007 727.567 881.81 737.369C861.556 769.406 850.425 812.829 850.895 850.651L829.486 824.068L831.004 819.287C837.533 799.289 839.05 775.986 842.348 755.2C844.107 744.113 842.493 733.295 836.749 723.616C830.124 719.416 825.137 717.634 817.233 716.76Z"/>
	<path fill="#7CB345" d="M656.71 868.945C659.469 870.274 661.466 873.779 663.216 876.221L672.137 887.705C677.401 894.926 685.918 909.465 695.489 910.92C699.878 911.587 704.46 910.997 708.54 909.367L716.748 905.913L723.51 902.855C737.658 950.919 760.381 997.292 798.557 1030.91C813.724 1044.27 830.304 1054.51 847.976 1064.17C870.188 1076.31 891.105 1084.39 916.462 1085.92C916.67 1089.85 911.296 1099.01 909.557 1102.9L857.856 1209L835.352 1258.67L785.266 1365.12L771.36 1396.5C768.476 1403.05 764.952 1409.38 764.351 1416.58L764.18 1418.08L764.004 1419.84L738.527 1410.91L718.708 1398.62C716.352 1396.61 714.248 1394.44 712.253 1392.06C706.065 1384.69 705.176 1377.73 705.938 1368.53C707.889 1363.12 711.018 1358 713.705 1352.92L724.527 1333.32C726.356 1329.98 728.742 1326.55 729.503 1322.78C733.3 1318.77 735.968 1312.18 738.576 1307.29L757.217 1271.6L804.259 1179.93C821.756 1145.8 837.708 1112.12 862.042 1082.16L835.513 1079.19C790.858 1073.38 745.487 1055.69 711.878 1025.11C700.73 1014.97 691.279 1003.19 682.13 991.265L670.963 973.885C664.164 962.14 658.986 949.604 654.643 936.767C652.972 931.829 650.648 926.546 650.207 921.313C649.793 916.408 650.545 911.331 650.953 906.445C652.034 893.474 653.392 881.557 656.71 868.945Z"/>
	<path fill="#9399BF" d="M682.13 991.265C691.279 1003.19 700.73 1014.97 711.878 1025.11C745.487 1055.69 790.858 1073.38 835.513 1079.19L862.042 1082.16C837.708 1112.12 821.756 1145.8 804.259 1179.93L757.217 1271.6L738.576 1307.29C735.968 1312.18 733.3 1318.77 729.503 1322.78C727.199 1317.07 726.861 1313.66 727.866 1307.48C728.282 1304.92 718.575 1300.16 716.07 1298.61C687.127 1280.72 660.366 1257.87 641.901 1229C615.14 1187.14 603.29 1129.25 614.286 1080.65C618.519 1061.94 626.651 1041.92 638.835 1026.93C650.552 1012.52 666.521 1001.06 682.13 991.265Z"/>
</svg>
